# xmcd
#
# Track frame offsets:
#	150
#	2836
#	22770
#	28146
#	46874
#	68375
#	87374
#	106743
#	128280
#	131419
#	152368
#	170807
#	187679
#	191526
#	212050
#	233034
#	255510
#	270028
#	286889
#	308330
#	335247
#
# Disc length: 4598 seconds
# Revision: 0
# Processed by: cddbd v1.5.2PL0 Copyright (c) Steve Scherf et al.
# Submitted via: dBpowerAMP V12.0
#
DISCID=fa11f415
DTITLE=Lethal - Da Chosen Few
DYEAR=2001
DGENRE=Rap
TTITLE0=Intro: Suicidal Tendenciez (Screw)
TTITLE1=Six Die
TTITLE2=Commercial: Dime a Dozen
TTITLE3=Dime a Dozen feat. Devin the Dude
TTITLE4=20 Bladez
TTITLE5=U Wit It
TTITLE6=High Speed feat. Brotha Lynch Hung
TTITLE7=U Gat Dat Thang Gul feat. 918, Young Twin
TTITLE8=Commercial: It Wouldn't Come Back
TTITLE9=Kille'm Dead feat. 918
TTITLE10=Gangsta Life feat. Stan Blackshire
TTITLE11=Ride or Die
TTITLE12=Commercial: Barber Shop
TTITLE13=Modern Day Slavery feat. Kokane, Skitales
TTITLE14=Lil' Homie feat. Stan Blackshire
TTITLE15=Illegal feat. Yukmouth, Papa Reu
TTITLE16=Get High feat. Levitti
TTITLE17=Highly Respected feat. 918
TTITLE18=New Clothez
TTITLE19=Ni**az Wanna Ride feat. Kokane
TTITLE20=Outro: Ni**az Wanna Ride (R.I.P.'z)
EXTD=
EXTT0=
EXTT1=
EXTT2=
EXTT3=
EXTT4=
EXTT5=
EXTT6=
EXTT7=
EXTT8=
EXTT9=
EXTT10=
EXTT11=
EXTT12=
EXTT13=
EXTT14=
EXTT15=
EXTT16=
EXTT17=
EXTT18=
EXTT19=
EXTT20=
PLAYORDER=
